<svg width="199" height="50" viewBox="0 0 199 50" fill="none" xmlns="http://www.w3.org/2000/svg">
  <g clip-path="url(#a)">
    <path d="M63.74 29.18c0 .8-.2 1.507-.6 2.12-.4.6-.98 1.073-1.74 1.42-.76.333-1.66.5-2.7.5-1 0-1.913-.147-2.74-.44a6.137 6.137 0 0 1-2.1-1.3l1.04-1.18c.507.48 1.067.847 1.68 1.1.627.253 1.34.38 2.14.38.907 0 1.667-.22 2.28-.66.613-.44.92-1.073.92-1.9 0-.467-.087-.853-.26-1.16-.173-.307-.48-.58-.92-.82-.427-.24-1.033-.473-1.82-.7-1.493-.44-2.607-.953-3.34-1.54-.733-.6-1.1-1.413-1.1-2.44 0-.68.187-1.293.56-1.84.373-.547.9-.967 1.58-1.26.68-.307 1.453-.46 2.32-.46.907 0 1.713.133 2.42.4.72.267 1.38.66 1.98 1.18L62.3 21.7a4.864 4.864 0 0 0-3.3-1.24c-.8 0-1.46.173-1.98.52-.52.347-.78.853-.78 1.52 0 .4.107.74.32 1.02.213.28.567.54 1.06.78.493.24 1.187.487 2.08.74 1.293.373 2.287.86 2.98 1.46.707.6 1.06 1.493 1.06 2.68Zm7.252-11.64c.373 0 .673.113.9.34.227.213.34.493.34.84s-.113.633-.34.86c-.227.213-.526.32-.9.32-.36 0-.653-.107-.88-.32-.213-.227-.32-.513-.32-.86s.107-.627.32-.84c.227-.227.52-.34.88-.34Zm1.34 14.12h2.96V33h-7.88v-1.34h3.24V23.8h-3.14v-1.34h4.82v9.2Zm13.592-9.42c.6 0 1.087.213 1.46.64.387.413.58 1.173.58 2.28V33h-1.54v-7.56c0-.733-.046-1.227-.14-1.48-.093-.267-.32-.4-.68-.4-.68 0-1.293.42-1.84 1.26V33h-1.56v-7.56c0-.733-.046-1.227-.14-1.48-.093-.267-.32-.4-.68-.4-.68 0-1.293.42-1.84 1.26V33h-1.54V22.46h1.3l.12 1.24c.32-.467.654-.827 1-1.08.36-.253.787-.38 1.28-.38.987 0 1.62.467 1.9 1.4.32-.453.66-.8 1.02-1.04s.794-.36 1.3-.36Zm9.773 0c2.546 0 3.82 1.827 3.82 5.48 0 1.667-.347 3-1.04 4-.694 1-1.7 1.5-3.02 1.5-1.147 0-2.08-.4-2.8-1.2v5.02l-1.68.2V22.46h1.44l.14 1.48a4.12 4.12 0 0 1 1.38-1.26 3.666 3.666 0 0 1 1.76-.44Zm-.4 1.36c-.534 0-1.027.16-1.48.48-.44.32-.827.72-1.16 1.2v5.22c.28.413.626.74 1.04.98.426.227.886.34 1.38.34.88 0 1.533-.333 1.96-1 .44-.68.66-1.713.66-3.1s-.194-2.42-.58-3.1c-.387-.68-.994-1.02-1.82-1.02Zm11.792 6.8c0 .947.58 1.42 1.74 1.42.546 0 1.133-.12 1.76-.36l.44 1.22c-.667.36-1.5.54-2.5.54-.947 0-1.707-.26-2.28-.78-.56-.52-.84-1.227-.84-2.12V19.56h-3.24v-1.34h4.92V30.4Zm9.212-2.08c.04 1.16.34 2.033.9 2.62.573.587 1.293.88 2.16.88.52 0 .993-.073 1.42-.22.44-.16.907-.4 1.4-.72l.78 1.12a5.594 5.594 0 0 1-1.7.9 5.87 5.87 0 0 1-1.9.32c-1.52 0-2.707-.493-3.56-1.48-.84-1-1.26-2.333-1.26-4 0-1.053.187-1.993.56-2.82.373-.84.907-1.493 1.6-1.96.693-.48 1.5-.72 2.42-.72 1.333 0 2.38.467 3.14 1.4.773.92 1.16 2.18 1.16 3.78 0 .307-.013.607-.04.9h-7.08Zm2.84-4.7c-.813 0-1.473.293-1.98.88-.507.573-.793 1.42-.86 2.54h5.48c-.013-1.107-.253-1.953-.72-2.54-.467-.587-1.107-.88-1.92-.88ZM131.793 33h-1.74V20.72h-4.3v-1.5h10.38l-.18 1.5h-4.16V33Zm11.152-15.46c.374 0 .674.113.9.34.227.213.34.493.34.84s-.113.633-.34.86c-.226.213-.526.32-.9.32-.36 0-.653-.107-.88-.32-.213-.227-.32-.513-.32-.86s.107-.627.32-.84c.227-.227.52-.34.88-.34Zm1.34 14.12h2.96V33h-7.88v-1.34h3.24V23.8h-3.14v-1.34h4.82v9.2Zm13.593-9.42c.6 0 1.086.213 1.46.64.386.413.58 1.173.58 2.28V33h-1.54v-7.56c0-.733-.047-1.227-.14-1.48-.094-.267-.32-.4-.68-.4-.68 0-1.294.42-1.84 1.26V33h-1.56v-7.56c0-.733-.047-1.227-.14-1.48-.094-.267-.32-.4-.68-.4-.68 0-1.294.42-1.84 1.26V33h-1.54V22.46h1.3l.12 1.24c.32-.467.653-.827 1-1.08.36-.253.786-.38 1.28-.38.986 0 1.62.467 1.9 1.4.32-.453.66-.8 1.02-1.04s.793-.36 1.3-.36Zm6.392 6.08c.04 1.16.34 2.033.9 2.62.573.587 1.293.88 2.16.88.52 0 .993-.073 1.42-.22.44-.16.906-.4 1.4-.72l.78 1.12a5.606 5.606 0 0 1-1.7.9 5.87 5.87 0 0 1-1.9.32c-1.52 0-2.707-.493-3.56-1.48-.84-1-1.26-2.333-1.26-4 0-1.053.186-1.993.56-2.82.373-.84.906-1.493 1.6-1.96.693-.48 1.5-.72 2.42-.72 1.333 0 2.38.467 3.14 1.4.773.92 1.16 2.18 1.16 3.78 0 .307-.014.607-.04.9h-7.08Zm2.84-4.7c-.814 0-1.474.293-1.98.88-.507.573-.794 1.42-.86 2.54h5.48c-.014-1.107-.254-1.953-.72-2.54-.467-.587-1.107-.88-1.92-.88Zm14.932-1.38c.427 0 .92.073 1.48.22l-.24 3.58h-1.36v-2.26h-.1c-1.627 0-2.78 1.16-3.46 3.48v4.44h2.14V33h-5.48v-1.3h1.66v-7.94h-1.66v-1.3h2.92l.32 2.5c.427-.907.933-1.587 1.52-2.04.6-.453 1.353-.68 2.26-.68Z" fill="#fff"/>
    <path d="M4.85 13.366 25 1.732l20.15 11.634v23.268L25 48.268 4.85 36.634V13.366Z" fill="#16151B" stroke="#6C38CC" stroke-width="3"/>
    <path d="m18.016 21.467 6.96 7.629-.439.474-11.918-7.593v-1.002l11.918-7.612.44.475-6.961 7.629Zm13.968 7.066-6.96-7.629.439-.474 11.918 7.593v1.002l-11.918 7.612-.44-.475 6.961-7.629Z" fill="#fff"/>
  </g>
  <defs>
    <clipPath id="a">
      <path fill="#fff" d="M0 0h199v50H0z"/>
    </clipPath>
  </defs>
</svg>
